<svg xmlns="http://www.w3.org/2000/svg" xmlns:xlink="http://www.w3.org/1999/xlink" width="96" height="16" viewBox="0 0 96 16"><defs><style>.a,.c{fill:#fff;}.a{stroke:#707070;}.b{clip-path:url(#a);}.d{fill:#1fc880;}.e{clip-path:url(#d);}</style><clipPath id="a"><rect class="a" width="16" height="16" transform="translate(203.5 509)"/></clipPath><clipPath id="d"><rect class="a" width="16" height="16"/></clipPath></defs><g transform="translate(-1107 -987)"><g class="b" transform="translate(903.5 478)"><path class="c" d="M4,0,8,5H0Z" transform="translate(207.5 515)"/></g><g class="b" transform="translate(983.5 478)"><path class="c" d="M4,0,8,5H0Z" transform="translate(207.5 515)"/></g><g class="b" transform="translate(919.5 478)"><path class="d" d="M4,0,8,5H0Z" transform="translate(207.5 515)"/></g><g class="e" transform="translate(1139 987)"><path class="c" d="M4,0,8,5H0Z" transform="translate(12 11) rotate(180)"/></g><g class="e" transform="translate(1155 987)"><path class="c" d="M4,0,8,5H0Z" transform="translate(12 11) rotate(180)"/></g><g class="e" transform="translate(1171 987)"><path class="d" d="M4,0,8,5H0Z" transform="translate(12 11) rotate(180)"/></g></g></svg>