<svg xmlns="http://www.w3.org/2000/svg" width="20" height="20"><path fill="#ff4c4c" fill-rule="evenodd" d="M15 13.51a.5.5 0 0 1-.5.5H9.197a.495.495 0 0 0-.353.146l-.698.698a.5.5 0 0 1-.353.146H6.207a.5.5 0 0 1-.353-.146l-.698-.698a.497.497 0 0 0-.353-.146H3.5a.5.5 0 0 1-.5-.5V10.5a.5.5 0 0 1 .5-.5h1.293a.5.5 0 0 1 .353.146l.708.708a.5.5 0 0 0 .353.146h1.586a.5.5 0 0 0 .353-.146l.708-.708A.5.5 0 0 1 9.207 10H14.5a.5.5 0 0 1 .5.5zm2-5a.5.5 0 0 1-.5.5H9.197a.495.495 0 0 0-.353.146l-.698.698a.5.5 0 0 1-.353.146H6.207a.5.5 0 0 1-.353-.146l-.698-.698a.497.497 0 0 0-.353-.146H3.5a.5.5 0 0 1-.5-.5V5.5a.5.5 0 0 1 .5-.5h1.293a.5.5 0 0 1 .353.146l.708.708A.5.5 0 0 0 6.207 6h1.586a.5.5 0 0 0 .353-.146l.708-.708A.5.5 0 0 1 9.207 5H16.5a.5.5 0 0 1 .5.5Z"/></svg>