<svg xmlns="http://www.w3.org/2000/svg" xmlns:xlink="http://www.w3.org/1999/xlink" width="90" height="90" viewBox="0 0 90 90"><defs><style>.a{stroke:#000;}.b{clip-path:url(#a);}.c{opacity:0.3;}.d,.e{fill:#1fc880;}.e{opacity:0.1;}</style><clipPath id="a"><rect class="a" width="90" height="90" transform="translate(236 638)"/></clipPath></defs><g class="b" transform="translate(-236 -638)"><g transform="translate(-473.5 350.5)"><g class="c"><path class="d" d="M784.412,299.5H724.588a8.088,8.088,0,0,0-8.088,8.088v49.824a8.088,8.088,0,0,0,8.088,8.088h59.824a8.088,8.088,0,0,0,8.088-8.088V307.588A8.088,8.088,0,0,0,784.412,299.5Zm5.088,57.912a5.094,5.094,0,0,1-5.088,5.088H724.588a5.094,5.094,0,0,1-5.088-5.088V319h70ZM728,316v-2a3,3,0,0,1,3-3h47a3,3,0,0,1,3,3v2Zm61.5,0H784v-2a6,6,0,0,0-6-6H731a6,6,0,0,0-6,6v2h-5.5v-8.412a5.094,5.094,0,0,1,5.088-5.088h59.824a5.094,5.094,0,0,1,5.088,5.088Z"/><path class="d" d="M737.5,329h-10a1.5,1.5,0,0,0,0,3h10a1.5,1.5,0,0,0,0-3Z"/><path class="d" d="M763.944,346.715a10.546,10.546,0,1,0-2.11,2.139l7.674,6.771a1.5,1.5,0,1,0,1.984-2.25ZM748,340.5a7.5,7.5,0,1,1,7.5,7.5A7.5,7.5,0,0,1,748,340.5Z"/><circle class="e" cx="7.5" cy="7.5" r="7.5" transform="translate(748 333)"/></g></g></g></svg>