<svg xmlns="http://www.w3.org/2000/svg" xmlns:xlink="http://www.w3.org/1999/xlink" width="90" height="90" viewBox="0 0 90 90"><defs><style>.a,.c,.e,.i{fill:#fff;}.a{stroke:#707070;}.b{clip-path:url(#a);}.c{opacity:0.36;}.d{opacity:0.6;}.e,.f{stroke:rgba(0,0,0,0);stroke-miterlimit:10;}.e{opacity:0.67;}.f,.k{fill:url(#b);}.g{opacity:0.4;}.h{fill:url(#d);}.i{opacity:0.2;}.j{stroke:rgba(255,255,255,0.5);fill:url(#e);}.l{stroke:rgba(255,255,255,0.4);fill:url(#i);}.m{fill:url(#k);}.n{fill:url(#l);}.o,.q{stroke:none;}.p{fill:none;}.q{fill:rgba(255,255,255,0.6);}</style><clipPath id="a"><rect class="a" width="90" height="90" transform="translate(1250 844)"/></clipPath><linearGradient id="b" x1="0.5" x2="0.5" y2="1" gradientUnits="objectBoundingBox"><stop offset="0" stop-color="#fff" stop-opacity="0.4"/><stop offset="1" stop-color="#fff" stop-opacity="0.6"/></linearGradient><linearGradient id="d" x1="0.385" y1="0.405" x2="1.3" y2="1.29" gradientUnits="objectBoundingBox"><stop offset="0" stop-color="#fff" stop-opacity="0.6"/><stop offset="1" stop-color="#fff" stop-opacity="0.302"/></linearGradient><linearGradient id="e" x1="0.5" x2="0.5" y2="1" gradientUnits="objectBoundingBox"><stop offset="0" stop-color="#fff" stop-opacity="0.302"/><stop offset="1" stop-color="#fff" stop-opacity="0.8"/></linearGradient><linearGradient id="i" x1="0.046" y1="0.5" x2="1" y2="0.5" gradientUnits="objectBoundingBox"><stop offset="0" stop-color="#fff" stop-opacity="0.502"/><stop offset="1" stop-color="#fff" stop-opacity="0.702"/></linearGradient><linearGradient id="k" x1="0.661" y1="0.41" x2="-0.168" y2="0.418" gradientUnits="objectBoundingBox"><stop offset="0" stop-color="#fff" stop-opacity="0.702"/><stop offset="1" stop-color="#fff" stop-opacity="0.149"/></linearGradient><linearGradient id="l" x1="0.5" y1="0.449" x2="-0.18" y2="0.465" xlink:href="#k"/></defs><g class="b" transform="translate(-1250 -844)"><g transform="translate(317 398)"><path class="c" d="M2.912,3.855,21.287,3C22.43,3,32.328,7.84,32.328,9.218l3.01,23.51-3.01,15.184a2.312,2.312,0,0,1-2.069,2.5H-.09a2.312,2.312,0,0,1-2.069-2.5l-4.8-15.184L.545,7.454C.545,6.076,1.769,3.855,2.912,3.855Z" transform="translate(956 459.292)"/><g class="d"><path class="e" d="M7266.889,12.781h-26.108c-.232,0-.461-.01-.7-.031a7.47,7.47,0,0,1-1.169-.179,5.874,5.874,0,0,1-.609-.15c-.156-.043-.319-.1-.531-.17-.306-.117-.633-.258-1-.43l-.011-.009a8.994,8.994,0,0,1-4.18-4.332L7232,6.191a10.093,10.093,0,0,0,1.49.878,8.031,8.031,0,0,0,7.289,4.712H7266.3l-.01-.016.01.014c.169.3.35.6.525.894l.011.019.052.086Zm24.892-30.8h0c-.349-.127-.676-.235-1-.329V-48.219a8.037,8.037,0,0,0-4.71-7.291,8.7,8.7,0,0,0-.639-1.14c-.073-.109-.158-.236-.24-.351l1.291.58a9,9,0,0,1,4.33,4.182.009.009,0,0,1,.009.009c.172.368.313.695.43,1l.007.019c.035.1.074.2.1.312.009.031.019.061.028.091l.01.032c.008.025.016.05.023.077a5.856,5.856,0,0,1,.15.609,7.525,7.525,0,0,1,.18,1.171c.021.239.031.467.031.7v30.2Z" transform="translate(-6288.779 512.219)"/><path class="f" d="M7239.29,10.29A8.021,8.021,0,0,1,7232,5.58c.121.051.25.11.37.15a3.357,3.357,0,0,0,.412.15c.249.08.5.15.759.21a.13.13,0,0,1,.06.02l.15.029a1.983,1.983,0,0,1,.229.04,2.865,2.865,0,0,0,.441.06h.02a.033.033,0,0,0,.029.011,7.563,7.563,0,0,0,.819.038h27.871c.11.351.22.7.34,1.041s.25.681.39,1.01c.069.17.141.34.219.5.081.19.161.371.251.56.141.3.291.6.45.891Zm49.02-30.39c-.39-.1-.779-.181-1.18-.251-.271-.06-.54-.1-.819-.141q-.51-.074-1.021-.119v-33.1a8.245,8.245,0,0,0-.049-.849.577.577,0,0,0-.02-.121.185.185,0,0,0,0-.07,2.478,2.478,0,0,0-.041-.251,2.547,2.547,0,0,0-.049-.28c-.011-.04-.011-.08-.02-.121v-.009a7.13,7.13,0,0,0-.23-.81,3.585,3.585,0,0,0-.15-.41c-.041-.121-.1-.251-.15-.37a8.021,8.021,0,0,1,4.711,7.29v29.87C7288.97-19.929,7288.641-20.021,7288.31-20.1Z" transform="translate(-6287.29 513.71)"/></g><g class="g"><path class="e" d="M7240.01,12.011A9,9,0,0,1,7232,7.05c.32.15.661.3,1,.43.17.06.349.119.529.17a7.945,7.945,0,0,0,6.481,3.36h24.349c.121.141.24.271.37.4.19.209.39.41.591.6Zm50-33.482V-48.989a7.946,7.946,0,0,0-3.36-6.481c-.02-.07-.04-.13-.06-.2-.029-.11-.07-.22-.11-.329-.13-.34-.28-.681-.43-1a9.005,9.005,0,0,1,4.961,8.011V-20.88C7290.679-21.079,7290.35-21.281,7290.01-21.471Z" transform="translate(-6284.01 516.99)"/><path class="f" d="M7238.479,9.481A7.937,7.937,0,0,1,7232,6.12a5.943,5.943,0,0,0,.609.15,7.465,7.465,0,0,0,1.17.179c.229.02.459.031.7.031h26.111c.208.338.43.669.649.99.309.45.64.88.98,1.3.2.24.4.479.609.71Zm48.91-33.02c-.19-.09-.37-.17-.56-.26s-.38-.161-.58-.23c-.25-.1-.51-.2-.77-.291v-30.2c0-.24-.011-.47-.029-.7a7.693,7.693,0,0,0-.181-1.169,5.974,5.974,0,0,0-.15-.611,7.943,7.943,0,0,1,3.36,6.481V-23C7288.12-23.19,7287.759-23.369,7287.39-23.54Z" transform="translate(-6282.48 518.52)"/></g><circle class="h" cx="21" cy="21" r="21" transform="translate(975 493)"/><path class="i" d="M996,494a20,20,0,1,1-20,20,20.023,20.023,0,0,1,20-20m0-1a21,21,0,1,0,21,21,21,21,0,0,0-21-21Z"/><g transform="translate(1)"><g class="j" transform="translate(982 511)"><circle class="o" cx="3" cy="3" r="3"/><circle class="p" cx="3" cy="3" r="2.5"/></g><g class="j" transform="translate(992 511)"><circle class="o" cx="3" cy="3" r="3"/><circle class="p" cx="3" cy="3" r="2.5"/></g><g class="j" transform="translate(1002 511)"><circle class="o" cx="3" cy="3" r="3"/><circle class="p" cx="3" cy="3" r="2.5"/></g></g></g><g transform="translate(317 398)"><path class="k" d="M998,460v33.1h-.05q-.39-.045-.78-.06a.914.914,0,0,0-.17-.01c-.33-.02-.66-.03-1-.03a21,21,0,0,0-21,21c0,.56.02,1.13.07,1.68q.015.315.06.63c.01.17.04.35.06.52.03.23.07.46.11.69.03.19.06.38.1.56.06.31.13.62.2.92.01.03.01.05.02.08.07.31.16.62.25.92H948a7.391,7.391,0,0,1-.82-.04.037.037,0,0,1-.03-.01h-.02a3.115,3.115,0,0,1-.44-.06,1.846,1.846,0,0,0-.23-.04l-.15-.03a.142.142,0,0,0-.06-.02c-.26-.06-.51-.13-.76-.21a3.389,3.389,0,0,1-.41-.15c-.12-.04-.25-.1-.37-.15a7.209,7.209,0,0,1-1.49-.88h-.01A7.992,7.992,0,0,1,940,512V460a8,8,0,0,1,8-8h3v5a3,3,0,0,0,6,0v-5h25v5a3,3,0,0,0,6,0v-5h2a7.992,7.992,0,0,1,6.41,3.21v.01c.08.11.16.23.24.35a7.081,7.081,0,0,1,.64,1.14c.05.12.11.25.15.37a3.4,3.4,0,0,1,.15.41,6.9,6.9,0,0,1,.23.81v.01c.01.04.01.08.02.12a2.755,2.755,0,0,1,.05.28,2.178,2.178,0,0,1,.04.25c0,.02.01.05,0,.07a.5.5,0,0,1,.02.12A8.084,8.084,0,0,1,998,460Z"/><path class="i" d="M975.62,519.08c-.01-.03-.01-.05-.02-.08H948a7.008,7.008,0,0,1-7-7V460a7.008,7.008,0,0,1,7-7h3v-1h-3a8,8,0,0,0-8,8v52a7.992,7.992,0,0,0,3.21,6.41h.01a7.209,7.209,0,0,0,1.49.88c.12.05.25.11.37.15a3.389,3.389,0,0,0,.41.15c.25.08.5.15.76.21a.142.142,0,0,1,.06.02l.15.03a1.846,1.846,0,0,1,.23.04,3.115,3.115,0,0,0,.44.06h.02a.037.037,0,0,0,.03.01,7.391,7.391,0,0,0,.82.04h27.87C975.78,519.7,975.69,519.39,975.62,519.08Zm22.33-59.93a.5.5,0,0,0-.02-.12c.01-.02,0-.05,0-.07a2.178,2.178,0,0,0-.04-.25,2.755,2.755,0,0,0-.05-.28c-.01-.04-.01-.08-.02-.12v-.01a6.9,6.9,0,0,0-.23-.81,3.4,3.4,0,0,0-.15-.41c-.04-.12-.1-.25-.15-.37a7.081,7.081,0,0,0-.64-1.14c-.08-.12-.16-.24-.24-.35v-.01A7.992,7.992,0,0,0,990,452h-2v1h2a7.008,7.008,0,0,1,7,7v33.03a.914.914,0,0,1,.17.01q.39.015.78.06H998V460A8.084,8.084,0,0,0,997.95,459.15ZM957,453h25v-1H957Z"/><g class="l" transform="translate(951 447)"><rect class="o" width="6" height="13" rx="3"/><rect class="p" x="0.5" y="0.5" width="5" height="12" rx="2.5"/></g><g class="l" transform="translate(982 447)"><rect class="o" width="6" height="13" rx="3"/><rect class="p" x="0.5" y="0.5" width="5" height="12" rx="2.5"/></g></g><g class="m" transform="translate(-6173.157 4217)"><path class="o" d="M7461-3323v-20a3,3,0,0,1,3-3,2.991,2.991,0,0,1,2.241,1.006c.042.037.083.076.123.116l7.072,7.07a3,3,0,0,1,0,4.243,3,3,0,0,1-4.243,0l-2.193-2.192V-3323a3,3,0,0,1-3,3A3,3,0,0,1,7461-3323Z"/><path class="q" d="M 7464.00048828125 -3321.000732421875 C 7465.10302734375 -3321.000732421875 7466 -3321.897705078125 7466 -3323.000244140625 L 7466 -3338.17138671875 L 7469.900390625 -3334.271728515625 C 7470.27783203125 -3333.89404296875 7470.77978515625 -3333.685791015625 7471.31396484375 -3333.685791015625 C 7471.84814453125 -3333.685791015625 7472.3505859375 -3333.89404296875 7472.72900390625 -3334.272216796875 C 7473.50830078125 -3335.051513671875 7473.5078125 -3336.321044921875 7472.72900390625 -3337.101318359375 L 7465.65673828125 -3344.171630859375 C 7465.6298828125 -3344.198486328125 7465.603515625 -3344.22314453125 7465.57666015625 -3344.247314453125 L 7465.533203125 -3344.2861328125 L 7465.494140625 -3344.32958984375 C 7465.11474609375 -3344.755859375 7464.5703125 -3345.00048828125 7464.00048828125 -3345.00048828125 C 7462.89794921875 -3345.00048828125 7462.0009765625 -3344.103515625 7462.0009765625 -3343.0009765625 L 7462.0009765625 -3323.000244140625 C 7462.0009765625 -3321.897705078125 7462.89794921875 -3321.000732421875 7464.00048828125 -3321.000732421875 M 7464.00048828125 -3320.000732421875 C 7462.34375 -3320.000732421875 7461.0009765625 -3321.343994140625 7461.0009765625 -3323.000244140625 L 7461.0009765625 -3343.0009765625 C 7461.0009765625 -3344.6572265625 7462.34375 -3346.00048828125 7464.00048828125 -3346.00048828125 C 7464.8916015625 -3346.00048828125 7465.69189453125 -3345.611572265625 7466.2412109375 -3344.994384765625 C 7466.283203125 -3344.95703125 7466.32373046875 -3344.918701171875 7466.36376953125 -3344.878662109375 L 7473.43603515625 -3337.80859375 C 7474.6064453125 -3336.635986328125 7474.6064453125 -3334.73583984375 7473.43603515625 -3333.565185546875 C 7472.263671875 -3332.39306640625 7470.36328125 -3332.392578125 7469.19287109375 -3333.565185546875 L 7467 -3335.757568359375 L 7467 -3323.000244140625 C 7467 -3321.343994140625 7465.65673828125 -3320.000732421875 7464.00048828125 -3320.000732421875 Z"/></g><g class="n" transform="translate(1284.157 897) rotate(180)"><path class="o" d="M0,23V3A3,3,0,0,1,5.236,1q.065.058.127.12l7.071,7.071a3,3,0,0,1-4.243,4.243L6,10.243V23a3,3,0,0,1-6,0Z"/><path class="q" d="M 2.998800039291382 25.00010108947754 C 4.101930141448975 25.00010108947754 4.99940013885498 24.10304069519043 4.99940013885498 23.00040054321289 L 4.99940013885498 7.828690528869629 L 8.89918041229248 11.72846031188965 C 9.276570320129395 12.10615062713623 9.778590202331543 12.3141508102417 10.31276035308838 12.3141508102417 C 10.84708023071289 12.3141508102417 11.34943008422852 12.10605049133301 11.72729015350342 11.72819042205811 C 12.507080078125 10.94840049743652 12.507080078125 9.679600715637207 11.72729015350342 8.899810791015625 L 4.65625 1.828760623931885 C 4.629109859466553 1.801640629768372 4.600259780883789 1.774450659751892 4.570499897003174 1.74794065952301 L 4.52826976776123 1.710320711135864 L 4.49055004119873 1.668180704116821 C 4.110970020294189 1.244110703468323 3.56725001335144 1.000900626182556 2.998800039291382 1.000900626182556 C 1.896160006523132 1.000900626182556 0.9990999698638916 1.897960662841797 0.9990999698638916 3.000600576400757 L 0.9990999698638916 23.00040054321289 C 0.9990999698638916 24.10304069519043 1.896160006523132 25.00010108947754 2.998800039291382 25.00010108947754 M 2.998800039291382 26.00010108947754 C 1.341899991035461 26.00010108947754 -0.0009000251884572208 24.65730094909668 -0.0009000251884572208 23.00040054321289 L -0.0009000251884572208 3.000600576400757 C -0.0009000251884572208 1.343700647354126 1.341899991035461 0.0009006790351122618 2.998800039291382 0.0009006790351122618 C 3.88752007484436 0.0009006790351122618 4.686170101165771 0.3873406648635864 5.235660076141357 1.001240730285645 C 5.278969764709473 1.039820671081543 5.321549892425537 1.079880714416504 5.363100051879883 1.121400713920593 L 12.43439960479736 8.192700386047363 C 13.60620021820068 9.364500999450684 13.60620021820068 11.26350021362305 12.43439960479736 12.43530082702637 C 11.26260089874268 13.60710144042969 9.362700462341309 13.60710144042969 8.191800117492676 12.43530082702637 L 5.99940013885498 10.24290084838867 L 5.99940013885498 23.00040054321289 C 5.99940013885498 24.65730094909668 4.655700206756592 26.00010108947754 2.998800039291382 26.00010108947754 Z"/></g></g></svg>