<svg xmlns="http://www.w3.org/2000/svg" width="36" height="35.999" viewBox="0 0 36 35.999"><defs><style>.a{fill:#fff;}</style></defs><path class="a" d="M-83.186-2710l-1.062-5.748c-.275-.118-.544-.247-.809-.382l-4.461,3.069-5.17-5.169,3.316-4.819c-.111-.275-.213-.556-.305-.841l-5.324-.984v-7.311l5.749-1.062c.118-.275.247-.544.382-.809l-3.069-4.461,5.17-5.17,4.819,3.316q.413-.166.841-.3l.984-5.323h7.311l1.062,5.749c.275.118.545.248.809.383l4.461-3.07,5.17,5.17-3.316,4.819c.11.276.212.556.305.841l5.323.984v7.311l-5.749,1.063c-.118.274-.247.543-.382.809l3.07,4.46-5.17,5.171-4.819-3.317c-.275.111-.555.213-.84.305l-.984,5.323Zm-.96-7.912c.25.128.475.234.687.325l.984.422.955,5.165h3.982l.9-4.858,1.134-.367c.233-.076.472-.162.712-.258l1-.4,4.331,2.981,2.816-2.817-2.8-4.073.544-1.061c.128-.25.234-.475.325-.687l.422-.984,5.165-.955v-3.983l-4.858-.9-.367-1.134c-.075-.229-.162-.469-.26-.715l-.4-.994,2.979-4.329-2.816-2.816-4.072,2.8-1.062-.544c-.25-.128-.474-.234-.686-.325l-.985-.421-.954-5.166h-3.982l-.9,4.858-1.134.368c-.234.076-.473.162-.712.258l-.994.4-4.332-2.98-2.815,2.816,2.8,4.073-.543,1.062c-.129.25-.235.475-.326.686l-.421.985-5.166.954v3.982l4.858.9.367,1.133c.075.229.162.47.26.714l.4.994-2.98,4.331,2.816,2.815,4.072-2.8ZM-85-2728a6,6,0,0,1,6-6,6,6,0,0,1,6,6,6,6,0,0,1-6,6A6,6,0,0,1-85-2728Zm2,0a4,4,0,0,0,4,4,4,4,0,0,0,4-4,4.005,4.005,0,0,0-4-4A4,4,0,0,0-83-2728Z" transform="translate(97 2746)"/></svg>