<svg xmlns="http://www.w3.org/2000/svg" xmlns:xlink="http://www.w3.org/1999/xlink" width="90" height="90" viewBox="0 0 90 90"><defs><style>.a,.c,.e,.p{fill:#fff;}.a{stroke:#707070;}.b{clip-path:url(#a);}.c{opacity:0.37;}.d{fill:url(#b);}.e{opacity:0.3;}.f{fill:url(#c);}.g{fill:url(#d);}.h{fill:url(#e);}.i{fill:url(#f);}.j{fill:url(#g);}.k{fill:url(#h);}.l{fill:url(#i);}.m{fill:url(#j);}.n{fill:url(#l);}.o{fill:url(#m);}.p{opacity:0.1;}.q,.r,.s{stroke:none;}.r{fill:rgba(255,255,255,0.8);}.s{fill:rgba(255,255,255,0.2);}</style><clipPath id="a"><rect class="a" width="90" height="90" transform="translate(236 638)"/></clipPath><linearGradient id="b" x1="0.5" x2="0.5" y2="1" gradientUnits="objectBoundingBox"><stop offset="0" stop-color="#fff" stop-opacity="0.2"/><stop offset="1" stop-color="#fff" stop-opacity="0.502"/></linearGradient><linearGradient id="c" x1="0.5" x2="0.5" y2="1" gradientUnits="objectBoundingBox"><stop offset="0" stop-color="#fff" stop-opacity="0.4"/><stop offset="1" stop-color="#fff" stop-opacity="0.6"/></linearGradient><linearGradient id="d" x1="0.5" x2="0.5" y2="1" gradientUnits="objectBoundingBox"><stop offset="0" stop-color="#fcfcfc" stop-opacity="0.2"/><stop offset="1" stop-color="#fff" stop-opacity="0.4"/></linearGradient><linearGradient id="e" x1="1" y1="0.5" x2="0" y2="0.5" gradientUnits="objectBoundingBox"><stop offset="0" stop-color="#fff" stop-opacity="0.702"/><stop offset="1" stop-color="#fff" stop-opacity="0.4"/></linearGradient><linearGradient id="f" x1="0.815" y1="0.246" x2="0.255" y2="0.882" xlink:href="#e"/><linearGradient id="g" x1="0.5" y1="0" x2="0.5" y2="1" xlink:href="#e"/><linearGradient id="h" x1="0.223" y1="0.249" x2="0.741" y2="0.81" xlink:href="#e"/><linearGradient id="i" x1="-0.401" y1="0.573" x2="1.275" y2="0.591" xlink:href="#e"/><linearGradient id="j" x1="0.743" y1="0.163" x2="0.183" y2="0.854" xlink:href="#e"/><linearGradient id="l" x1="0.172" y1="0.161" x2="0.787" y2="0.829" gradientUnits="objectBoundingBox"><stop offset="0" stop-color="#fff" stop-opacity="0.4"/><stop offset="1" stop-color="#fff" stop-opacity="0.702"/></linearGradient><linearGradient id="m" x1="0.5" x2="0.5" y2="1" gradientUnits="objectBoundingBox"><stop offset="0" stop-color="#fff" stop-opacity="0.702"/><stop offset="1" stop-color="#fff" stop-opacity="0.149"/></linearGradient></defs><g class="b" transform="translate(-236 -638)"><g transform="translate(-8 3)"><rect class="c" width="60" height="49" transform="translate(257 658)"/><g transform="translate(-401 48.25)"><rect class="d" width="78" height="63" rx="6.049" transform="translate(649 600.5)"/><path class="e" d="M720.951,601.5A5.055,5.055,0,0,1,726,606.549v50.9a5.055,5.055,0,0,1-5.049,5.049h-65.9A5.055,5.055,0,0,1,650,657.451v-50.9a5.055,5.055,0,0,1,5.049-5.049h65.9m0-1h-65.9A6.049,6.049,0,0,0,649,606.549v50.9a6.049,6.049,0,0,0,6.049,6.049h65.9A6.049,6.049,0,0,0,727,657.451v-50.9a6.049,6.049,0,0,0-6.049-6.049Z"/><path class="f" d="M726.062,603.324A36.007,36.007,0,0,0,730,610.049v50.9A6.049,6.049,0,0,1,723.951,667h-65.9a125.556,125.556,0,0,0-6.96-4.983,7.054,7.054,0,0,0,6.96,5.983h65.9A7.057,7.057,0,0,0,731,660.951v-50.9A7.06,7.06,0,0,0,726.062,603.324Z"/><path class="g" d="M726.7,604.664a6.023,6.023,0,0,1,.3,1.885v50.9a6.049,6.049,0,0,1-6.049,6.049h-65.9a6,6,0,0,1-2.745-.664A6.047,6.047,0,0,0,658.049,667h65.9A6.049,6.049,0,0,0,730,660.951v-50.9A6.043,6.043,0,0,0,726.7,604.664Z"/><g transform="translate(1 87.75)"><g class="h"><path class="q" d="M687,536a1.5,1.5,0,0,0-1.5,1.5v4a1.5,1.5,0,0,0,3,0v-4A1.5,1.5,0,0,0,687,536Z"/><path class="r" d="M 687 536 C 686.1719970703125 536 685.5 536.6719970703125 685.5 537.5 L 685.5 541.5 C 685.5 542.3280029296875 686.1719970703125 543 687 543 C 687.8280029296875 543 688.5 542.3280029296875 688.5 541.5 L 688.5 537.5 C 688.5 536.6719970703125 687.8280029296875 536 687 536 M 687 535 C 688.3784790039062 535 689.5 536.1215209960938 689.5 537.5 L 689.5 541.5 C 689.5 542.8784790039062 688.3784790039062 544 687 544 C 685.6215209960938 544 684.5 542.8784790039062 684.5 541.5 L 684.5 537.5 C 684.5 536.1215209960938 685.6215209960938 535 687 535 Z"/></g><g class="i"><path class="q" d="M678.515,540.394a1.5,1.5,0,0,0-2.121,2.121l2.828,2.828a1.5,1.5,0,0,0,2.121-2.121Z"/><path class="r" d="M 677.4541015625 539.9544677734375 C 677.0702514648438 539.9544677734375 676.6864624023438 540.1010131835938 676.3939819335938 540.3939819335938 C 675.8079833984375 540.97900390625 675.8079833984375 541.9290161132812 676.3939819335938 542.5150146484375 L 679.2219848632812 545.343017578125 C 679.8079833984375 545.9288940429688 680.7589721679688 545.928955078125 681.343017578125 545.343017578125 C 681.9290161132812 544.7570190429688 681.9290161132812 543.8079833984375 681.343017578125 543.2219848632812 L 678.5150146484375 540.3939819335938 C 678.2219848632812 540.1010131835938 677.8380126953125 539.9544677734375 677.4541015625 539.9544677734375 M 677.4541015625 538.9544677734375 C 678.1219482421875 538.9544677734375 678.7498168945312 539.214599609375 679.2221069335938 539.6868896484375 L 682.0501098632812 542.514892578125 C 682.5223999023438 542.9871826171875 682.7825317382812 543.6149291992188 682.7825317382812 544.2825317382812 C 682.7825317382812 544.9500732421875 682.5223999023438 545.5778198242188 682.0501098632812 546.0501098632812 C 681.5802001953125 546.5216674804688 680.9522094726562 546.781982421875 680.2830200195312 546.781982421875 C 679.6148681640625 546.781982421875 678.9869384765625 546.5220947265625 678.5149536132812 546.0501708984375 L 675.6868896484375 543.2221069335938 C 675.214599609375 542.7498168945312 674.9544677734375 542.1219482421875 674.9544677734375 541.4541625976562 C 674.9544677734375 540.7860107421875 675.2147827148438 540.1581420898438 675.6875 539.686279296875 C 676.1581420898438 539.2147827148438 676.7860107421875 538.9544677734375 677.4541015625 538.9544677734375 Z"/></g><g class="j"><path class="q" d="M679,551a1.5,1.5,0,0,0-1.5-1.5h-4a1.5,1.5,0,0,0,0,3h4A1.5,1.5,0,0,0,679,551Z"/><path class="r" d="M 673.5 549.5 C 672.6710205078125 549.5 672 550.1719970703125 672 551 C 672 551.8280029296875 672.6710205078125 552.5 673.5 552.5 L 677.5 552.5 C 678.3289794921875 552.5 679 551.8280029296875 679 551 C 679 550.1719970703125 678.3289794921875 549.5 677.5 549.5 L 673.5 549.5 M 673.5 548.5 L 677.5 548.5 C 678.8784790039062 548.5 680 549.6215209960938 680 551 C 680 552.3784790039062 678.8784790039062 553.5 677.5 553.5 L 673.5 553.5 C 672.1215209960938 553.5 671 552.3784790039062 671 551 C 671 549.6215209960938 672.1215209960938 548.5 673.5 548.5 Z"/></g><g class="k"><path class="q" d="M679.222,556.657l-2.828,2.828a1.5,1.5,0,1,0,2.121,2.121l2.828-2.828a1.5,1.5,0,0,0-2.121-2.121Z"/><path class="r" d="M 680.2828979492188 556.2174682617188 C 679.8989868164062 556.2174682617188 679.5149536132812 556.3639526367188 679.2219848632812 556.656982421875 L 676.3939819335938 559.4849853515625 C 675.8079833984375 560.0709838867188 675.8079833984375 561.02099609375 676.3939819335938 561.6060180664062 C 676.97802734375 562.1920166015625 677.9290161132812 562.19189453125 678.5150146484375 561.6060180664062 L 681.343017578125 558.7780151367188 C 681.9290161132812 558.1920166015625 681.9290161132812 557.2429809570312 681.343017578125 556.656982421875 C 681.050537109375 556.3639526367188 680.666748046875 556.2174682617188 680.2828979492188 556.2174682617188 M 680.2828979492188 555.2174682617188 C 680.9509887695312 555.2174682617188 681.578857421875 555.477783203125 682.0507202148438 555.9505004882812 C 683.0247802734375 556.924560546875 683.0247802734375 558.5104370117188 682.0501098632812 559.485107421875 L 679.2221069335938 562.3131103515625 C 678.7493896484375 562.7857666015625 678.1214599609375 563.0460205078125 677.4539794921875 563.0460205078125 C 676.7854614257812 563.0460205078125 676.157470703125 562.7853393554688 675.6857299804688 562.3119506835938 C 675.2147827148438 561.8418579101562 674.9544677734375 561.2139892578125 674.9544677734375 560.5458374023438 C 674.9544677734375 559.8780517578125 675.214599609375 559.2501831054688 675.6868896484375 558.7778930664062 L 678.514892578125 555.9498901367188 C 678.9871826171875 555.4776000976562 679.6150512695312 555.2174682617188 680.2828979492188 555.2174682617188 Z"/></g><g class="l"><path class="q" d="M687,559a1.5,1.5,0,0,0-1.5,1.5v4a1.5,1.5,0,0,0,3,0v-4A1.5,1.5,0,0,0,687,559Z"/><path class="r" d="M 687 559 C 686.1719970703125 559 685.5 559.6719970703125 685.5 560.5 L 685.5 564.5 C 685.5 565.3280029296875 686.1719970703125 566 687 566 C 687.8280029296875 566 688.5 565.3280029296875 688.5 564.5 L 688.5 560.5 C 688.5 559.6719970703125 687.8280029296875 559 687 559 M 687 558 C 688.3784790039062 558 689.5 559.1215209960938 689.5 560.5 L 689.5 564.5 C 689.5 565.8784790039062 688.3784790039062 567 687 567 C 685.6215209960938 567 684.5 565.8784790039062 684.5 564.5 L 684.5 560.5 C 684.5 559.1215209960938 685.6215209960938 558 687 558 Z"/></g><g class="m"><path class="q" d="M694.778,556.657a1.5,1.5,0,0,0-2.121,2.121l2.828,2.828a1.5,1.5,0,0,0,2.121-2.121Z"/><path class="r" d="M 693.717529296875 556.2174682617188 C 693.333740234375 556.2174682617188 692.949951171875 556.3639526367188 692.656982421875 556.656982421875 C 692.0709838867188 557.2429809570312 692.0709838867188 558.1920166015625 692.656982421875 558.7780151367188 L 695.4849853515625 561.6060180664062 C 696.0709838867188 562.19189453125 697.0198974609375 562.1919555664062 697.6060180664062 561.6060180664062 C 698.1920166015625 561.02099609375 698.1920166015625 560.0709838867188 697.6060180664062 559.4849853515625 L 694.7780151367188 556.656982421875 C 694.4850463867188 556.3639526367188 694.1012573242188 556.2174682617188 693.717529296875 556.2174682617188 M 693.717529296875 555.2174682617188 C 694.3850708007812 555.2174682617188 695.0128173828125 555.4776000976562 695.485107421875 555.9498901367188 L 698.3131103515625 558.7778930664062 C 698.785400390625 559.2501831054688 699.0455322265625 559.8780517578125 699.0455322265625 560.5458374023438 C 699.0455322265625 561.2139892578125 698.7852172851562 561.8418579101562 698.3125610351562 562.313720703125 C 697.8403930664062 562.7857666015625 697.2128295898438 563.0460205078125 696.5460205078125 563.0460205078125 C 695.8785400390625 563.0460205078125 695.2506103515625 562.7857666015625 694.7779541015625 562.313232421875 L 691.9498901367188 559.485107421875 C 690.9752197265625 558.5104370117188 690.9752197265625 556.924560546875 691.9498901367188 555.9498901367188 C 692.4221801757812 555.4776000976562 693.0499267578125 555.2174682617188 693.717529296875 555.2174682617188 Z"/></g><g class="j"><path class="q" d="M700.5,549.5h-4a1.5,1.5,0,0,0,0,3h4a1.5,1.5,0,0,0,0-3Z"/><path class="r" d="M 696.5 549.5 C 695.6719970703125 549.5 695 550.1719970703125 695 551 C 695 551.8280029296875 695.6719970703125 552.5 696.5 552.5 L 700.5 552.5 C 701.3280029296875 552.5 702 551.8280029296875 702 551 C 702 550.1719970703125 701.3280029296875 549.5 700.5 549.5 L 696.5 549.5 M 696.5 548.5 L 700.5 548.5 C 701.8784790039062 548.5 703 549.6215209960938 703 551 C 703 552.3784790039062 701.8784790039062 553.5 700.5 553.5 L 696.5 553.5 C 695.1215209960938 553.5 694 552.3784790039062 694 551 C 694 549.6215209960938 695.1215209960938 548.5 696.5 548.5 Z"/></g><g class="n"><path class="q" d="M693.718,545.782a1.493,1.493,0,0,0,1.06-.439l2.828-2.828a1.5,1.5,0,0,0-2.121-2.121l-2.828,2.828a1.5,1.5,0,0,0,1.061,2.56Z"/><path class="r" d="M 693.718017578125 545.781982421875 C 694.1019897460938 545.781982421875 694.4849853515625 545.635986328125 694.7780151367188 545.343017578125 L 697.6060180664062 542.5150146484375 C 698.1920166015625 541.9290161132812 698.1920166015625 540.97900390625 697.6060180664062 540.3939819335938 C 697.0210571289062 539.8080444335938 696.071044921875 539.8081665039062 695.4849853515625 540.3939819335938 L 692.656982421875 543.2219848632812 C 692.0709838867188 543.8079833984375 692.0709838867188 544.7570190429688 692.656982421875 545.343017578125 C 692.9500122070312 545.635986328125 693.333984375 545.781982421875 693.718017578125 545.781982421875 M 693.718017578125 546.781982421875 C 693.0498657226562 546.781982421875 692.4219360351562 546.5220947265625 691.949951171875 546.0501708984375 C 691.4776000976562 545.5778198242188 691.2174682617188 544.9500732421875 691.2174682617188 544.2825317382812 C 691.2174682617188 543.6149291992188 691.4776000976562 542.9871826171875 691.9498901367188 542.514892578125 L 694.7778930664062 539.6868896484375 C 695.2501831054688 539.214599609375 695.8780517578125 538.9544677734375 696.5458984375 538.9544677734375 C 697.2139892578125 538.9544677734375 697.8418579101562 539.2147827148438 698.313720703125 539.6875 C 698.7852172851562 540.1581420898438 699.0455322265625 540.7860107421875 699.0455322265625 541.4541625976562 C 699.0455322265625 542.1219482421875 698.785400390625 542.7498168945312 698.3131103515625 543.2221069335938 L 695.485107421875 546.0501098632812 C 695.0130615234375 546.5220947265625 694.385498046875 546.781982421875 693.718017578125 546.781982421875 Z"/></g></g></g><g class="o" transform="translate(294 653)"><path class="q" d="M3,0H3A3,3,0,0,1,3,6H3A3,3,0,0,1,3,0Z"/><path class="s" d="M 3 1 C 1.897200107574463 1 1 1.897200107574463 1 3 C 1 4.102799892425537 1.897200107574463 5 3 5 C 4.102799892425537 5 5 4.102799892425537 5 3 C 5 1.897200107574463 4.102799892425537 1 3 1 M 3 0 C 4.65684986114502 0 6 1.34315013885498 6 3 C 6 4.65684986114502 4.65684986114502 6 3 6 C 1.34315013885498 6 0 4.65684986114502 0 3 C 0 1.34315013885498 1.34315013885498 0 3 0 Z"/></g><g class="o" transform="translate(304 653)"><path class="q" d="M3,0H3A3,3,0,0,1,3,6H3A3,3,0,0,1,3,0Z"/><path class="s" d="M 3 1 C 1.897200107574463 1 1 1.897200107574463 1 3 C 1 4.102799892425537 1.897200107574463 5 3 5 C 4.102799892425537 5 5 4.102799892425537 5 3 C 5 1.897200107574463 4.102799892425537 1 3 1 M 3 0 C 4.65684986114502 0 6 1.34315013885498 6 3 C 6 4.65684986114502 4.65684986114502 6 3 6 C 1.34315013885498 6 0 4.65684986114502 0 3 C 0 1.34315013885498 1.34315013885498 0 3 0 Z"/></g><g class="o" transform="translate(314 653)"><path class="q" d="M3,0H3A3,3,0,0,1,3,6H3A3,3,0,0,1,3,0Z"/><path class="s" d="M 3 1 C 1.897200107574463 1 1 1.897200107574463 1 3 C 1 4.102799892425537 1.897200107574463 5 3 5 C 4.102799892425537 5 5 4.102799892425537 5 3 C 5 1.897200107574463 4.102799892425537 1 3 1 M 3 0 C 4.65684986114502 0 6 1.34315013885498 6 3 C 6 4.65684986114502 4.65684986114502 6 3 6 C 1.34315013885498 6 0 4.65684986114502 0 3 C 0 1.34315013885498 1.34315013885498 0 3 0 Z"/></g><rect class="p" width="76" height="1" transform="translate(249 662)"/></g></g></svg>