<svg xmlns="http://www.w3.org/2000/svg" xmlns:xlink="http://www.w3.org/1999/xlink" width="90" height="90" viewBox="0 0 90 90"><defs><style>.a{fill:#fff;stroke:#707070;}.b{clip-path:url(#a);}.c{fill:none;}.d{fill:#1fc880;}.e{fill:url(#b);}.f,.g{stroke:none;}.g{fill:#1fc880;}</style><clipPath id="a"><rect class="a" width="90" height="90" transform="translate(236 638)"/></clipPath><linearGradient id="b" x1="1" y1="0.5" x2="0" y2="0.5" gradientUnits="objectBoundingBox"><stop offset="0" stop-color="#fff" stop-opacity="0.702"/><stop offset="1" stop-color="#fff" stop-opacity="0.4"/></linearGradient></defs><g class="b" transform="translate(-236 -638)"><g transform="translate(-8 3)"><g class="c" transform="translate(294 653)"><path class="f" d="M3,0H3A3,3,0,0,1,3,6H3A3,3,0,0,1,3,0Z"/><path class="g" d="M 3 1 C 1.897200107574463 1 1 1.897200107574463 1 3 C 1 4.102799892425537 1.897200107574463 5 3 5 C 4.102799892425537 5 5 4.102799892425537 5 3 C 5 1.897200107574463 4.102799892425537 1 3 1 M 3 0 C 4.65684986114502 0 6 1.34315013885498 6 3 C 6 4.65684986114502 4.65684986114502 6 3 6 C 1.34315013885498 6 0 4.65684986114502 0 3 C 0 1.34315013885498 1.34315013885498 0 3 0 Z"/></g><g class="c" transform="translate(304 653)"><path class="f" d="M3,0H3A3,3,0,0,1,3,6H3A3,3,0,0,1,3,0Z"/><path class="g" d="M 3 1 C 1.897200107574463 1 1 1.897200107574463 1 3 C 1 4.102799892425537 1.897200107574463 5 3 5 C 4.102799892425537 5 5 4.102799892425537 5 3 C 5 1.897200107574463 4.102799892425537 1 3 1 M 3 0 C 4.65684986114502 0 6 1.34315013885498 6 3 C 6 4.65684986114502 4.65684986114502 6 3 6 C 1.34315013885498 6 0 4.65684986114502 0 3 C 0 1.34315013885498 1.34315013885498 0 3 0 Z"/></g><g class="c" transform="translate(314 653)"><path class="f" d="M3,0H3A3,3,0,0,1,3,6H3A3,3,0,0,1,3,0Z"/><path class="g" d="M 3 1 C 1.897200107574463 1 1 1.897200107574463 1 3 C 1 4.102799892425537 1.897200107574463 5 3 5 C 4.102799892425537 5 5 4.102799892425537 5 3 C 5 1.897200107574463 4.102799892425537 1 3 1 M 3 0 C 4.65684986114502 0 6 1.34315013885498 6 3 C 6 4.65684986114502 4.65684986114502 6 3 6 C 1.34315013885498 6 0 4.65684986114502 0 3 C 0 1.34315013885498 1.34315013885498 0 3 0 Z"/></g><rect class="d" width="76" height="1" transform="translate(249 662)"/><path class="d" d="M720.951,601.5A5.055,5.055,0,0,1,726,606.549v50.9a5.055,5.055,0,0,1-5.049,5.049h-65.9A5.055,5.055,0,0,1,650,657.451v-50.9a5.055,5.055,0,0,1,5.049-5.049h65.9m0-1h-65.9A6.049,6.049,0,0,0,649,606.549v50.9a6.049,6.049,0,0,0,6.049,6.049h65.9A6.049,6.049,0,0,0,727,657.451v-50.9a6.049,6.049,0,0,0-6.049-6.049Z" transform="translate(-401 48.25)"/><path class="d" d="M726.062,603.324A36.007,36.007,0,0,0,730,610.049v50.9A6.049,6.049,0,0,1,723.951,667h-65.9a125.556,125.556,0,0,0-6.96-4.983,7.054,7.054,0,0,0,6.96,5.983h65.9A7.057,7.057,0,0,0,731,660.951v-50.9A7.06,7.06,0,0,0,726.062,603.324Z" transform="translate(-401 48.25)"/><g class="e" transform="translate(9202 5535)"><path class="f" d="M -8915.0009765625 -4832.5 C -8916.103515625 -4832.5 -8917 -4833.39697265625 -8917 -4834.49951171875 L -8917 -4838.5 C -8917 -4839.6025390625 -8916.103515625 -4840.49951171875 -8915.0009765625 -4840.49951171875 C -8913.8974609375 -4840.49951171875 -8912.9990234375 -4839.6025390625 -8912.9990234375 -4838.5 L -8912.9990234375 -4834.49951171875 C -8912.9990234375 -4833.39697265625 -8913.8974609375 -4832.5 -8915.0009765625 -4832.5 Z M -8905.453125 -4836.45361328125 C -8905.98828125 -4836.45361328125 -8906.4912109375 -4836.66259765625 -8906.869140625 -4837.0419921875 L -8909.6953125 -4839.86767578125 C -8910.4755859375 -4840.6474609375 -8910.4755859375 -4841.9169921875 -8909.6953125 -4842.697265625 C -8909.3173828125 -4843.07470703125 -8908.8154296875 -4843.2822265625 -8908.28125 -4843.2822265625 C -8907.748046875 -4843.2822265625 -8907.24609375 -4843.07470703125 -8906.8681640625 -4842.697265625 L -8904.0400390625 -4839.86865234375 C -8903.6630859375 -4839.4912109375 -8903.455078125 -4838.9892578125 -8903.455078125 -4838.455078125 C -8903.455078125 -4837.9208984375 -8903.6630859375 -4837.4189453125 -8904.0400390625 -4837.04150390625 C -8904.41796875 -4836.66259765625 -8904.919921875 -4836.45361328125 -8905.453125 -4836.45361328125 Z M -8924.5458984375 -4836.45361328125 C -8925.0810546875 -4836.45361328125 -8925.583984375 -4836.6630859375 -8925.9609375 -4837.04296875 C -8926.337890625 -4837.41796875 -8926.5458984375 -4837.92041015625 -8926.5458984375 -4838.455078125 C -8926.5458984375 -4838.98974609375 -8926.337890625 -4839.4921875 -8925.9580078125 -4839.86962890625 L -8923.130859375 -4842.697265625 C -8922.7529296875 -4843.07470703125 -8922.2509765625 -4843.2822265625 -8921.7177734375 -4843.2822265625 C -8921.18359375 -4843.2822265625 -8920.681640625 -4843.07470703125 -8920.3037109375 -4842.697265625 C -8919.5263671875 -4841.91650390625 -8919.5263671875 -4840.64794921875 -8920.302734375 -4839.8681640625 L -8923.1318359375 -4837.04150390625 C -8923.51171875 -4836.662109375 -8924.013671875 -4836.45361328125 -8924.5458984375 -4836.45361328125 Z M -8901.5 -4846.0009765625 L -8905.5009765625 -4846.0009765625 C -8906.603515625 -4846.0009765625 -8907.5 -4846.89794921875 -8907.5 -4848 C -8907.5 -4849.1025390625 -8906.603515625 -4849.99951171875 -8905.5009765625 -4849.99951171875 L -8901.5 -4849.99951171875 C -8900.3974609375 -4849.99951171875 -8899.5009765625 -4849.1025390625 -8899.5009765625 -4848 C -8899.5009765625 -4846.89794921875 -8900.3974609375 -4846.0009765625 -8901.5 -4846.0009765625 Z M -8924.5009765625 -4846.0009765625 L -8928.4990234375 -4846.0009765625 C -8929.6025390625 -4846.0009765625 -8930.5009765625 -4846.89794921875 -8930.5009765625 -4848 C -8930.5009765625 -4849.1025390625 -8929.6025390625 -4849.99951171875 -8928.4990234375 -4849.99951171875 L -8924.5009765625 -4849.99951171875 C -8923.3974609375 -4849.99951171875 -8922.4990234375 -4849.1025390625 -8922.4990234375 -4848 C -8922.4990234375 -4846.89794921875 -8923.3974609375 -4846.0009765625 -8924.5009765625 -4846.0009765625 Z M -8908.2822265625 -4852.71728515625 C -8908.818359375 -4852.71728515625 -8909.3212890625 -4852.92578125 -8909.697265625 -4853.3046875 C -8910.07421875 -4853.6826171875 -8910.2822265625 -4854.185546875 -8910.2822265625 -4854.7197265625 C -8910.28125 -4855.2529296875 -8910.0732421875 -4855.75390625 -8909.6943359375 -4856.130859375 L -8906.869140625 -4858.95849609375 C -8906.4912109375 -4859.3369140625 -8905.98828125 -4859.54541015625 -8905.4541015625 -4859.54541015625 C -8904.9189453125 -4859.54541015625 -8904.4169921875 -4859.3369140625 -8904.0390625 -4858.9580078125 C -8903.6630859375 -4858.5810546875 -8903.455078125 -4858.0791015625 -8903.455078125 -4857.544921875 C -8903.455078125 -4857.0107421875 -8903.6630859375 -4856.5087890625 -8904.0400390625 -4856.13134765625 L -8906.8681640625 -4853.30322265625 C -8907.2470703125 -4852.92529296875 -8907.7490234375 -4852.71728515625 -8908.2822265625 -4852.71728515625 Z M -8921.7177734375 -4852.71728515625 C -8922.25390625 -4852.71728515625 -8922.7568359375 -4852.92578125 -8923.1328125 -4853.3046875 L -8925.958984375 -4856.13134765625 C -8926.337890625 -4856.5078125 -8926.5458984375 -4857.01025390625 -8926.5458984375 -4857.544921875 C -8926.5458984375 -4858.07958984375 -8926.337890625 -4858.58203125 -8925.9580078125 -4858.95947265625 C -8925.58203125 -4859.3369140625 -8925.080078125 -4859.54541015625 -8924.544921875 -4859.54541015625 C -8924.0107421875 -4859.54541015625 -8923.5087890625 -4859.3369140625 -8923.130859375 -4858.9580078125 L -8920.3037109375 -4856.13037109375 C -8919.525390625 -4855.3525390625 -8919.525390625 -4854.08447265625 -8920.302734375 -4853.3037109375 C -8920.677734375 -4852.92578125 -8921.1806640625 -4852.71728515625 -8921.7177734375 -4852.71728515625 Z M -8915.0009765625 -4855.5009765625 C -8916.103515625 -4855.5009765625 -8917 -4856.39794921875 -8917 -4857.50048828125 L -8917 -4861.50048828125 C -8917 -4862.60302734375 -8916.103515625 -4863.5 -8915.0009765625 -4863.5 C -8913.8974609375 -4863.5 -8912.9990234375 -4862.60302734375 -8912.9990234375 -4861.50048828125 L -8912.9990234375 -4857.50048828125 C -8912.9990234375 -4856.39794921875 -8913.8974609375 -4855.5009765625 -8915.0009765625 -4855.5009765625 Z"/><path class="g" d="M -8915.0009765625 -4833 C -8914.171875 -4833 -8913.4990234375 -4833.67236328125 -8913.4990234375 -4834.49951171875 L -8913.4990234375 -4838.5 C -8913.4990234375 -4839.3291015625 -8914.171875 -4839.99951171875 -8915.0009765625 -4839.99951171875 C -8915.828125 -4839.99951171875 -8916.5 -4839.3291015625 -8916.5 -4838.5 L -8916.5 -4834.49951171875 C -8916.5 -4833.67236328125 -8915.828125 -4833 -8915.0009765625 -4833 M -8905.453125 -4836.95361328125 C -8905.0703125 -4836.95361328125 -8904.6865234375 -4837.1015625 -8904.3935546875 -4837.39501953125 C -8903.80859375 -4837.97998046875 -8903.80859375 -4838.93017578125 -8904.3935546875 -4839.51513671875 L -8907.2216796875 -4842.34375 C -8907.8056640625 -4842.927734375 -8908.7578125 -4842.927734375 -8909.341796875 -4842.34375 C -8909.9287109375 -4841.75634765625 -8909.9287109375 -4840.80810546875 -8909.341796875 -4840.22119140625 L -8906.515625 -4837.39501953125 C -8906.22265625 -4837.1015625 -8905.8388671875 -4836.95361328125 -8905.453125 -4836.95361328125 M -8924.5458984375 -4836.95361328125 C -8924.162109375 -4836.95361328125 -8923.779296875 -4837.1015625 -8923.4853515625 -4837.39501953125 L -8920.6572265625 -4840.22119140625 C -8920.072265625 -4840.80810546875 -8920.072265625 -4841.75634765625 -8920.6572265625 -4842.34375 C -8921.2412109375 -4842.927734375 -8922.193359375 -4842.927734375 -8922.77734375 -4842.34375 L -8925.60546875 -4839.51513671875 C -8926.193359375 -4838.93017578125 -8926.193359375 -4837.97998046875 -8925.60546875 -4837.39501953125 C -8925.314453125 -4837.1015625 -8924.9287109375 -4836.95361328125 -8924.5458984375 -4836.95361328125 M -8901.5 -4846.5009765625 C -8900.6708984375 -4846.5009765625 -8900.0009765625 -4847.1708984375 -8900.0009765625 -4848 C -8900.0009765625 -4848.8271484375 -8900.6708984375 -4849.49951171875 -8901.5 -4849.49951171875 L -8905.5009765625 -4849.49951171875 C -8906.3271484375 -4849.49951171875 -8907 -4848.8271484375 -8907 -4848 C -8907 -4847.1708984375 -8906.3271484375 -4846.5009765625 -8905.5009765625 -4846.5009765625 L -8901.5 -4846.5009765625 M -8924.5009765625 -4846.5009765625 C -8923.671875 -4846.5009765625 -8922.9990234375 -4847.1708984375 -8922.9990234375 -4848 C -8922.9990234375 -4848.8271484375 -8923.671875 -4849.49951171875 -8924.5009765625 -4849.49951171875 L -8928.4990234375 -4849.49951171875 C -8929.328125 -4849.49951171875 -8930.0009765625 -4848.8271484375 -8930.0009765625 -4848 C -8930.0009765625 -4847.1708984375 -8929.328125 -4846.5009765625 -8928.4990234375 -4846.5009765625 L -8924.5009765625 -4846.5009765625 M -8908.2822265625 -4853.21728515625 C -8907.8984375 -4853.21728515625 -8907.515625 -4853.36328125 -8907.2216796875 -4853.65673828125 L -8904.3935546875 -4856.48486328125 C -8903.80859375 -4857.06982421875 -8903.80859375 -4858.02001953125 -8904.3935546875 -4858.60498046875 C -8904.9775390625 -4859.19091796875 -8905.92578125 -4859.19189453125 -8906.515625 -4858.60498046875 L -8909.341796875 -4855.77685546875 C -8909.9287109375 -4855.19189453125 -8909.9287109375 -4854.244140625 -8909.341796875 -4853.65673828125 C -8909.05078125 -4853.36328125 -8908.6650390625 -4853.21728515625 -8908.2822265625 -4853.21728515625 M -8921.7177734375 -4853.21728515625 C -8921.33203125 -4853.21728515625 -8920.9482421875 -4853.36328125 -8920.6572265625 -4853.65673828125 C -8920.072265625 -4854.244140625 -8920.072265625 -4855.19189453125 -8920.6572265625 -4855.77685546875 L -8923.4853515625 -4858.60498046875 C -8924.068359375 -4859.19140625 -8925.0185546875 -4859.1923828125 -8925.60546875 -4858.60498046875 C -8926.193359375 -4858.02001953125 -8926.193359375 -4857.06982421875 -8925.60546875 -4856.48486328125 L -8922.77734375 -4853.65673828125 C -8922.486328125 -4853.36328125 -8922.1005859375 -4853.21728515625 -8921.7177734375 -4853.21728515625 M -8915.0009765625 -4856.0009765625 C -8914.171875 -4856.0009765625 -8913.4990234375 -4856.6708984375 -8913.4990234375 -4857.50048828125 L -8913.4990234375 -4861.50048828125 C -8913.4990234375 -4862.32763671875 -8914.171875 -4863 -8915.0009765625 -4863 C -8915.828125 -4863 -8916.5 -4862.32763671875 -8916.5 -4861.50048828125 L -8916.5 -4857.50048828125 C -8916.5 -4856.6708984375 -8915.828125 -4856.0009765625 -8915.0009765625 -4856.0009765625 M -8915.0009765625 -4832 C -8916.37890625 -4832 -8917.5 -4833.12109375 -8917.5 -4834.49951171875 L -8917.5 -4838.5 C -8917.5 -4839.87841796875 -8916.37890625 -4840.99951171875 -8915.0009765625 -4840.99951171875 C -8913.62109375 -4840.99951171875 -8912.4990234375 -4839.87841796875 -8912.4990234375 -4838.5 L -8912.4990234375 -4834.49951171875 C -8912.4990234375 -4833.12109375 -8913.62109375 -4832 -8915.0009765625 -4832 Z M -8905.453125 -4835.95361328125 C -8906.12109375 -4835.95361328125 -8906.75 -4836.21484375 -8907.2236328125 -4836.6884765625 L -8910.048828125 -4839.51416015625 C -8911.0234375 -4840.48876953125 -8911.0234375 -4842.0751953125 -8910.048828125 -4843.05078125 C -8909.5771484375 -4843.5224609375 -8908.94921875 -4843.7822265625 -8908.28125 -4843.7822265625 C -8907.6142578125 -4843.7822265625 -8906.986328125 -4843.5224609375 -8906.5146484375 -4843.05126953125 L -8903.6865234375 -4840.22216796875 C -8902.7119140625 -4839.248046875 -8902.7119140625 -4837.662109375 -8903.6865234375 -4836.68798828125 C -8904.1591796875 -4836.21484375 -8904.7861328125 -4835.95361328125 -8905.453125 -4835.95361328125 Z M -8924.5458984375 -4835.95361328125 C -8925.21484375 -4835.95361328125 -8925.841796875 -4836.21435546875 -8926.3125 -4836.6884765625 C -8926.7861328125 -4837.16015625 -8927.0458984375 -4837.78759765625 -8927.0458984375 -4838.455078125 C -8927.0458984375 -4839.1240234375 -8926.78515625 -4839.751953125 -8926.310546875 -4840.22412109375 L -8923.484375 -4843.05078125 C -8923.0126953125 -4843.5224609375 -8922.384765625 -4843.7822265625 -8921.7177734375 -4843.7822265625 C -8921.0498046875 -4843.7822265625 -8920.421875 -4843.5224609375 -8919.9501953125 -4843.05126953125 C -8918.9775390625 -4842.07470703125 -8918.978515625 -4840.4892578125 -8919.94921875 -4839.51513671875 L -8922.7783203125 -4836.6875 C -8923.2529296875 -4836.21435546875 -8923.8798828125 -4835.95361328125 -8924.5458984375 -4835.95361328125 Z M -8901.5 -4845.5009765625 L -8905.5009765625 -4845.5009765625 C -8906.87890625 -4845.5009765625 -8908 -4846.6220703125 -8908 -4848 C -8908 -4849.37841796875 -8906.87890625 -4850.49951171875 -8905.5009765625 -4850.49951171875 L -8901.5 -4850.49951171875 C -8900.1220703125 -4850.49951171875 -8899.0009765625 -4849.37841796875 -8899.0009765625 -4848 C -8899.0009765625 -4846.6220703125 -8900.1220703125 -4845.5009765625 -8901.5 -4845.5009765625 Z M -8924.5009765625 -4845.5009765625 L -8928.4990234375 -4845.5009765625 C -8929.87890625 -4845.5009765625 -8931.0009765625 -4846.6220703125 -8931.0009765625 -4848 C -8931.0009765625 -4849.37841796875 -8929.87890625 -4850.49951171875 -8928.4990234375 -4850.49951171875 L -8924.5009765625 -4850.49951171875 C -8923.12109375 -4850.49951171875 -8921.9990234375 -4849.37841796875 -8921.9990234375 -4848 C -8921.9990234375 -4846.6220703125 -8923.12109375 -4845.5009765625 -8924.5009765625 -4845.5009765625 Z M -8908.2822265625 -4852.21728515625 C -8908.953125 -4852.21728515625 -8909.58203125 -4852.478515625 -8910.0517578125 -4852.95263671875 C -8910.5224609375 -4853.42333984375 -8910.7822265625 -4854.05224609375 -8910.7822265625 -4854.72021484375 C -8910.78125 -4855.38720703125 -8910.5205078125 -4856.013671875 -8910.0478515625 -4856.4853515625 L -8907.22265625 -4859.31201171875 C -8906.75 -4859.78515625 -8906.1220703125 -4860.04541015625 -8905.4541015625 -4860.04541015625 C -8904.78515625 -4860.04541015625 -8904.1572265625 -4859.78466796875 -8903.6845703125 -4859.310546875 C -8902.7119140625 -4858.337890625 -8902.7119140625 -4856.751953125 -8903.6865234375 -4855.77783203125 L -8906.5146484375 -4852.94970703125 C -8906.98828125 -4852.47705078125 -8907.615234375 -4852.21728515625 -8908.2822265625 -4852.21728515625 Z M -8921.7177734375 -4852.21728515625 C -8922.388671875 -4852.21728515625 -8923.017578125 -4852.478515625 -8923.4873046875 -4852.95263671875 L -8926.3125 -4855.77783203125 C -8926.78515625 -4856.248046875 -8927.0458984375 -4856.8759765625 -8927.0458984375 -4857.544921875 C -8927.0458984375 -4858.2138671875 -8926.78515625 -4858.841796875 -8926.310546875 -4859.31396484375 C -8925.841796875 -4859.78466796875 -8925.2138671875 -4860.04541015625 -8924.544921875 -4860.04541015625 C -8923.876953125 -4860.04541015625 -8923.2490234375 -4859.78466796875 -8922.7763671875 -4859.310546875 L -8919.9501953125 -4856.48388671875 C -8918.9775390625 -4855.51171875 -8918.9775390625 -4853.9267578125 -8919.9482421875 -4852.951171875 C -8920.4169921875 -4852.478515625 -8921.0458984375 -4852.21728515625 -8921.7177734375 -4852.21728515625 Z M -8915.0009765625 -4855.0009765625 C -8916.37890625 -4855.0009765625 -8917.5 -4856.1220703125 -8917.5 -4857.50048828125 L -8917.5 -4861.50048828125 C -8917.5 -4862.87890625 -8916.37890625 -4864 -8915.0009765625 -4864 C -8913.62109375 -4864 -8912.4990234375 -4862.87890625 -8912.4990234375 -4861.50048828125 L -8912.4990234375 -4857.50048828125 C -8912.4990234375 -4856.1220703125 -8913.62109375 -4855.0009765625 -8915.0009765625 -4855.0009765625 Z"/></g></g></g></svg>