<svg xmlns="http://www.w3.org/2000/svg" xmlns:xlink="http://www.w3.org/1999/xlink" width="96" height="24" viewBox="0 0 96 24"><defs><style>.a,.b{clip-path:url(#a);}.b{opacity:0.3;}.c{opacity:0.2;}</style><clipPath id="a"><rect width="24" height="24"/></clipPath></defs><g transform="translate(-1313 -250)"><g class="a" transform="translate(1313 250)"><path d="M10.959,11.668l-4.95-4.95-4.95,4.95a.5.5,0,1,1-.707-.707L5.3,6.01.353,1.061A.5.5,0,0,1,1.059.354L6.009,5.3l4.95-4.95a.5.5,0,1,1,.707.706L6.716,6.01l4.95,4.95a.5.5,0,1,1-.707.707Z" transform="translate(6 6.001)"/></g><g class="a" transform="translate(1361 250)"><path d="M10.959,11.668l-4.95-4.95-4.95,4.95a.5.5,0,1,1-.707-.707L5.3,6.01.353,1.061A.5.5,0,0,1,1.059.354L6.009,5.3l4.95-4.95a.5.5,0,1,1,.707.706L6.716,6.01l4.95,4.95a.5.5,0,1,1-.707.707Z" transform="translate(6 6.001)"/></g><g class="b" transform="translate(1385 250)"><path d="M10.959,11.668l-4.95-4.95-4.95,4.95a.5.5,0,1,1-.707-.707L5.3,6.01.353,1.061A.5.5,0,0,1,1.059.354L6.009,5.3l4.95-4.95a.5.5,0,1,1,.707.706L6.716,6.01l4.95,4.95a.5.5,0,1,1-.707.707Z" transform="translate(6 6.001)"/></g><g class="a" transform="translate(1337 250)"><rect class="c" width="24" height="24" rx="4"/><path d="M10.959,11.668l-4.95-4.95-4.95,4.95a.5.5,0,1,1-.707-.707L5.3,6.01.353,1.061A.5.5,0,0,1,1.059.354L6.009,5.3l4.95-4.95a.5.5,0,1,1,.707.706L6.716,6.01l4.95,4.95a.5.5,0,1,1-.707.707Z" transform="translate(6 6.001)"/></g></g></svg>