<svg xmlns="http://www.w3.org/2000/svg" width="440" height="36" viewBox="0 0 440 36"><defs><style>.a,.b,.d,.e{fill:#fff;}.a{opacity:0.4;}.b{opacity:0.2;}.c,.e{opacity:0.3;}.d{opacity:0.6;}</style></defs><g transform="translate(-435 -45)"><g transform="translate(-110 -56)"><path class="a" d="M775,170a17,17,0,0,1,0,34H701a17,17,0,0,1,0-34h74m0-1H701a18,18,0,0,0-18,18h0a18,18,0,0,0,18,18h74a18,18,0,0,0,18-18h0a18,18,0,0,0-18-18Z" transform="translate(-138 -68)"/><rect class="b" width="108" height="34" rx="17" transform="translate(546 102)"/></g><g class="c" transform="translate(220 -56)"><path class="a" d="M775,170a17,17,0,0,1,0,34H701a17,17,0,0,1,0-34h74m0-1H701a18,18,0,0,0-18,18h0a18,18,0,0,0,18,18h74a18,18,0,0,0,18-18h0a18,18,0,0,0-18-18Z" transform="translate(-138 -68)"/><rect class="b" width="108" height="34" rx="17" transform="translate(546 102)"/></g><g transform="translate(110 -56)"><path class="a" d="M775,170a17,17,0,0,1,0,34H701a17,17,0,0,1,0-34h74m0-1H701a18,18,0,0,0-18,18h0a18,18,0,0,0,18,18h74a18,18,0,0,0,18-18h0a18,18,0,0,0-18-18Z" transform="translate(-138 -68)"/><rect class="b" width="108" height="34" rx="17" transform="translate(546 102)"/></g><g transform="translate(0 -56)"><path class="d" d="M775,170a17,17,0,0,1,0,34H701a17,17,0,0,1,0-34h74m0-1H701a18,18,0,0,0-18,18h0a18,18,0,0,0,18,18h74a18,18,0,0,0,18-18h0a18,18,0,0,0-18-18Z" transform="translate(-138 -68)"/><rect class="e" width="108" height="34" rx="17" transform="translate(546 102)"/></g></g></svg>