<?xml version="1.0" encoding="UTF-8" standalone="no"?>
<svg
   aria-hidden="true"
   viewBox="0 0 1024 1024"
   version="1.1"
   id="svg6"
   sodipodi:docname="tw-advanced.svg"
   inkscape:version="1.2.2 (b0a8486541, 2022-12-01)"
   xmlns:inkscape="http://www.inkscape.org/namespaces/inkscape"
   xmlns:sodipodi="http://sodipodi.sourceforge.net/DTD/sodipodi-0.dtd"
   xmlns="http://www.w3.org/2000/svg"
   xmlns:svg="http://www.w3.org/2000/svg">
  <defs
     id="defs10" />
  <sodipodi:namedview
     id="namedview8"
     pagecolor="#ffffff"
     bordercolor="#000000"
     borderopacity="0.25"
     inkscape:showpageshadow="2"
     inkscape:pageopacity="0.0"
     inkscape:pagecheckerboard="0"
     inkscape:deskcolor="#d1d1d1"
     showgrid="false"
     inkscape:zoom="0.40722656"
     inkscape:cx="773.52518"
     inkscape:cy="586.89688"
     inkscape:window-width="1920"
     inkscape:window-height="1008"
     inkscape:window-x="1366"
     inkscape:window-y="0"
     inkscape:window-maximized="1"
     inkscape:current-layer="svg6" />
  <path
     d="m 729.38047,45.821257 c -6.63977,-0.06126 -13.10427,0.201662 -19.32658,0.794398 l -13.10521,1.249551 -12.77068,3.191727 c -5.07736,1.269341 -10.30455,2.616896 -15.84273,4.214173 -40.93175,5.201752 -83.36938,8.899519 -127.47118,10.895408 H 326.05152 c -5.7257,-0.927268 -12.0969,-1.849826 -28.34201,-1.849826 h -13.74318 l -13.5745,2.143839 c 6.2619,-0.989464 3.89001,-4.956743 -42.14738,5.833123 -23.01869,5.393991 -65.80404,19.718598 -101.0346,60.2866 -0.76425,0.88016 -1.45404,1.79612 -2.19567,2.68758 l -0.12816,0.01 0.0179,0.12722 c -33.349635,40.18354 -43.781409,91.51879 -43.781409,122.6313 0,44.30441 6.316548,48.77585 9.039928,57.64804 2.723381,8.87219 4.81539,14.39246 6.611502,19.189 2.660244,7.10717 3.354749,8.89104 3.844769,10.07651 -0.41557,-4.12465 -0.706755,-9.58366 -0.90936,-15.85969 l 1.3419,9.84846 c 0.53337,3.91074 1.06768,7.70274 1.60199,11.60028 l 1.21845,3.65819 2.29556,5.57869 c 0.46646,1.13271 -0.71053,2.76862 -2.19001,0.37317 2.74694,20.02675 5.49576,40.06291 8.24364,59.75795 l 0.48437,3.46973 0.62195,3.4471 c 5.3318,29.52842 10.33189,55.32892 25.71286,89.93565 7.69049,17.30336 17.43435,37.94828 42.21523,63.43687 19.16638,19.71388 54.05016,43.09916 95.80365,52.71108 -11.43633,10.78892 -22.30252,23.46914 -31.89843,38.54668 l -0.70865,1.11385 -0.69261,1.12422 c -31.19545,50.69259 -32.63441,157.95799 3.43579,212.06374 38.57401,57.86102 92.49317,77.42129 127.71619,85.42653 35.22491,8.00523 62.06293,7.64714 88.7483,6.16483 h 0.0914 l 0.0914,-0.01 c 31.24632,-1.76878 59.2227,-4.11523 85.25596,-7.28716 7.24853,-0.0857 12.73298,0.0933 14.06923,0.22616 l 0.78403,0.0782 0.78592,0.0716 c 31.14078,2.83081 55.94522,12.31646 121.25924,-12.80461 l 3.08148,-1.18547 3.03717,-1.30044 c 60.43739,-25.90227 125.56954,-120.3593 125.56954,-189.6472 0,-41.38314 -14.37549,-110.69366 -71.11323,-158.47344 -8.57534,-7.2212 -17.36932,-13.28709 -26.23868,-18.55669 -0.0104,-2.77992 -0.0264,-5.22154 -0.0376,-7.92513 3.8476,0.29966 7.55479,0.48908 10.98588,0.48908 32.80118,0 79.97411,-3.79577 129.96935,-42.02865 49.99618,-38.23099 76.61464,-110.97353 76.61464,-157.15888 0,-23.64252 -1.89411,-33.89148 -3.94183,-46.70173 1.6868,-13.58675 3.66761,-26.05399 6.00934,-36.30013 l -0.35903,1.54073 C 953.29798,242.73206 923.4878,134.24727 864.70235,89.956991 826.44309,61.394473 774.03921,46.23212 729.38142,45.821257 Z m 0.4005,87.553403 c 28.14035,0.14417 59.60435,9.59026 82.81717,27.55421 33.38073,25.86552 49.48261,84.30607 41.15886,119.26711 l 0.17998,-0.77083 c -3.80519,16.65126 -6.81316,35.5943 -8.95511,56.47859 0.0471,0.77932 0.12628,2.35586 0.58049,4.93129 l 0.19694,1.11197 0.1668,1.11574 c 2.10237,14.02023 3.74112,22.9989 3.74112,38.8765 0,27.09905 -14.61768,66.47499 -42.23503,87.59392 -27.6164,21.11798 -55.13197,24.01852 -76.77107,24.01852 -29.41063,0 -76.82761,-14.95126 -100.62563,-52.60554 1.27406,16.33275 1.29479,32.85491 1.68209,61.61438 0.47117,35.05245 0.70111,82.84731 0.70111,143.77566 v 2.95897 c 18.764,2.57543 38.93775,9.49885 57.12221,24.81198 31.29532,26.3546 39.94606,65.09352 39.94606,91.48581 0,41.42366 -35.80163,93.42705 -72.49188,109.15198 l -1.51718,0.65116 -1.54262,0.59179 c -36.66293,14.10127 -56.15253,9.66848 -81.89178,7.32863 l -0.39296,-0.0358 -0.39202,-0.0396 c -6.61244,-0.66152 -16.83784,-0.95837 -29.44644,-0.57012 -24.53398,3.11446 -51.91762,5.54665 -83.54183,7.33617 l -0.0452,0.002 -0.0462,0.002 c -21.66265,1.20337 -41.78363,1.03563 -64.48004,-4.12277 -22.69642,-5.1584 -53.12289,-16.90192 -74.25973,-48.60623 -20.4998,-30.75064 -19.77985,-88.23565 -1.71789,-117.58786 l 0.34584,-0.56257 0.35526,-0.55788 c 19.27287,-30.28418 48.22835,-44.9339 71.95757,-52.08536 3.65254,-1.10066 7.21084,-1.85266 10.79646,-2.70642 1.3928,-28.85747 1.46347,-72.16489 -0.26008,-128.47574 l -0.004,-0.10554 -0.002,-0.10742 c -0.22333,-7.91289 -0.27045,-15.39606 -0.43913,-23.17702 -7.14298,9.06632 -15.27826,16.91323 -23.89225,22.08107 -25.05511,15.03325 -45.40978,15.94543 -61.92817,15.94543 -30.58197,0 -57.48784,-16.55702 -71.22631,-30.6875 -13.73836,-14.13151 -19.90036,-26.53374 -24.97772,-37.95968 -10.15568,-22.85002 -14.8919,-44.07166 -19.56029,-69.92964 l -0.31097,-1.72167 -0.24124,-1.7358 c -3.71096,-26.59302 -7.42192,-53.49229 -11.13194,-80.69783 l -0.57012,-4.18684 c 0.0556,1.38807 0.0622,3.48196 0.13569,4.4931 -0.1159,-0.35432 -0.0961,-0.62572 -0.24312,-0.98193 l -1.14777,-2.78839 -0.9546,-2.86097 c -5.08302,-15.2481 -10.04165,-27.64844 -10.04165,-52.65548 0,-29.89029 17.27416,-67.22417 40.99961,-86.57902 23.72452,-19.35485 47.08434,-25.27278 68.04871,-28.58231 l 6.78584,-1.07333 h 6.87159 c 11.57955,0 15.5817,0.94234 21.63061,1.80553 0.35056,0.0499 0.32795,0.0169 0.63892,0.0443 h 223.2051 c 49.91326,-2.21263 98.05773,-6.49182 144.56064,-12.66136 6.16106,-2.12217 11.7963,-3.59222 17.6756,-5.06228 l 6.38533,-1.59634 6.5512,-0.62383 c 3.92015,-0.37317 7.94774,-0.5475 12.04789,-0.52677 z M 457.26854,657.59722 c -0.43819,0.0462 -0.70299,0.0575 -1.26746,0.16303 0.425,-0.004 0.84057,-0.0264 1.26746,-0.0283 z m 263.34811,36.70439 c 1.36169,10.15943 0,16.46468 0,19.4161 z m -88.19703,13.35494 v 6.16482 c 0,1.01302 1.26086,-0.82455 0,-6.16482 z"
     style="color:#000000;fill:#ffffff;stroke-width:1.01684;-inkscape-stroke:none"
     id="path2" />
  <path
     fill="#fff"
     d="m 767.87961,260.01831 q -7.3961,32.35408 -11.09726,70.2599 -0.91908,10.16576 1.85058,25.88327 2.77587,18.48716 2.77587,25.88326 0,24.03269 -31.435,24.03269 -20.33774,0 -26.80856,-12.01013 -0.92529,-20.33775 0.92529,-55.46769 1.85058,-41.60698 1.85058,-55.46769 -0.9315,0 -2.77587,-1.85058 -85.9774,3.69495 -161.78283,11.09105 -1.84437,12.02256 0,29.58443 l 3.70116,33.28558 q -3.70116,28.65292 -3.70116,85.0459 2.77587,24.03268 2.77587,206.15326 v 67.49023 q 0,15.71129 4.62024,22.18211 h 57.31827 q 35.12994,-4.62024 35.12994,29.58443 0,20.33773 -19.41245,28.65913 -12.01634,4.62023 -42.52605,1.85058 -18.48716,-1.85058 -43.45135,-0.9315 -34.20466,4.62644 -83.20153,7.40232 -49.92216,2.76965 -61.01321,-13.86692 -7.39611,-11.09727 0,-23.11361 12.94163,-20.33774 67.48403,-20.33774 28.65913,0 28.65913,-15.71129 0,-8.32139 -0.92528,-15.71751 0,-23.1136 0.93149,-40.67547 2.76966,-49.92837 0,-140.5198 -3.70116,-131.27933 2.76966,-235.73768 l -2.77587,-2.77587 q -28.65913,1.85058 -107.23422,-0.92529 -3.70115,0 -56.39298,3.70116 12.94164,88.74085 14.79221,126.64667 l -1.85057,24.96418 q -0.93151,13.86693 -23.11362,13.86693 -17.56187,0 -29.58441,-66.56496 -5.54553,-39.74398 -11.09106,-80.42566 0,-6.47082 -6.47081,-22.18832 -5.54553,-16.64279 -5.54553,-24.96418 0,-23.1074 35.12994,-28.65292 2.76967,0 9.24048,0.92528 6.47082,0.92529 9.24669,0.92529 h 229.26686 q 85.05211,-3.70116 164.55249,-14.79221 5.55173,-2.77587 16.64279,-5.55174 19.41244,-1.84437 33.28558,9.2529 13.86071,10.16576 9.24047,29.57821 z"
     style="fill:#ffffff;stroke-width:6.21"
     id="path4" />
</svg>
